<?xml version="1.0" encoding="iso-8859-1"?>
<!-- Generator: Adobe Illustrator 19.0.0, SVG Export Plug-In . SVG Version: 6.00 Build 0)  -->
<svg version="1.1" id="Capa_1" xmlns="http://www.w3.org/2000/svg" xmlns:xlink="http://www.w3.org/1999/xlink" x="0px" y="0px"
	 viewBox="0 0 512 512" style="enable-background:new 0 0 512 512;" xml:space="preserve">
<rect x="110" y="115" style="fill:#888890;" width="30" height="102"/>
<rect x="125" y="115" style="fill:#56535A;" width="15" height="102"/>
<path style="fill:#00C3FF;" d="M125,512c-24.813,0-45-20.187-45-45V202h90v265C170,491.813,149.813,512,125,512z"/>
<path style="fill:#00AAF0;" d="M125,202v310c24.813,0,45-20.187,45-45V202H125z"/>
<path style="fill:#DFDFE1;" d="M250,130H0V0h250V130z"/>
<path style="fill:#AFAEB4;" d="M250,130H125V0h125V130z"/>
<path style="fill:#F2F2F4;" d="M432,90h-70V0h70V90z"/>
<path style="fill:#DFDFE1;" d="M432,90h-35V0h35V90z"/>
<path style="fill:#888890;" d="M482,150H312v-45c0-24.813,20.187-45,45-45h80c24.813,0,45,20.187,45,45V150z"/>
<path style="fill:#56535A;" d="M437,60h-40v90h85v-45C482,80.187,461.813,60,437,60z"/>
<path style="fill:#00C3FF;" d="M512,512H282V120h230V512z"/>
<path style="fill:#00AAF0;" d="M512,512H397V120h115V512z"/>
<path style="fill:#F2F2F4;" d="M397,301c-30.327,0-55-24.673-55-55s24.673-55,55-55s55,24.673,55,55S427.327,301,397,301z"/>
<rect x="60" y="50" style="fill:#888890;" width="130" height="30"/>
<path style="fill:#DFDFE1;" d="M397,191v110c30.327,0,55-24.673,55-55S427.327,191,397,191z"/>
<rect x="125" y="50" style="fill:#56535A;" width="65" height="30"/>
<g>
</g>
<g>
</g>
<g>
</g>
<g>
</g>
<g>
</g>
<g>
</g>
<g>
</g>
<g>
</g>
<g>
</g>
<g>
</g>
<g>
</g>
<g>
</g>
<g>
</g>
<g>
</g>
<g>
</g>
</svg>
