<?xml version="1.0" encoding="iso-8859-1"?>
<!-- Generator: Adobe Illustrator 19.0.0, SVG Export Plug-In . SVG Version: 6.00 Build 0)  -->
<svg version="1.1" id="Capa_1" xmlns="http://www.w3.org/2000/svg" xmlns:xlink="http://www.w3.org/1999/xlink" x="0px" y="0px"
	 viewBox="0 0 409.583 409.583" style="enable-background:new 0 0 409.583 409.583;" xml:space="preserve">
<g>
	<path style="fill:#FCD462;" d="M121.97,71.207l-14.592,2.44l-2.42-14.442l14.592-2.44L121.97,71.207z M92.787,76.091l-14.592,2.44
		l-2.42-14.442l14.592-2.44L92.787,76.091z M63.597,80.977l-14.592,2.44l-2.42-14.442l14.592-2.44L63.597,80.977z M34.414,85.862
		l-14.592,2.44l-2.42-14.442l14.592-2.44L34.414,85.862z"/>
	
		<rect x="135.309" y="53.615" transform="matrix(-0.9863 0.1648 -0.1648 -0.9863 286.0755 98.1435)" style="fill:#FCD462;" width="7.316" height="14.643"/>
	
		<rect x="18.11" y="34.33" transform="matrix(-0.9996 0.0278 -0.0278 -0.9996 52.1639 82.5793)" style="fill:#FCD462;" width="14.797" height="14.643"/>
	
		<rect x="106.844" y="31.852" transform="matrix(-0.9996 0.0278 -0.0278 -0.9996 229.5283 75.159)" style="fill:#FCD462;" width="14.797" height="14.643"/>
	
		<rect x="77.254" y="32.678" transform="matrix(-0.9996 0.0278 -0.0278 -0.9996 170.3828 77.6337)" style="fill:#FCD462;" width="14.797" height="14.643"/>
	
		<rect x="47.682" y="33.506" transform="matrix(-0.9996 0.0278 -0.0278 -0.9996 111.2751 80.1085)" style="fill:#FCD462;" width="14.797" height="14.643"/>
	
		<rect x="136.435" y="31.121" transform="matrix(-0.9996 0.0271 -0.0271 -0.9996 281.176 73.0796)" style="fill:#FCD462;" width="7.316" height="14.643"/>
	<path style="fill:#FCD462;" d="M120.809,23.412l-14.741-1.262l1.244-14.591l14.741,1.262L120.809,23.412z M91.328,20.892
		L76.587,19.63L77.831,5.04l14.741,1.262L91.328,20.892z M61.839,18.372L47.099,17.11L48.343,2.52l14.741,1.262L61.839,18.372z
		 M32.358,15.852l-14.741-1.262L18.861,0l14.741,1.262L32.358,15.852z"/>
	
		<rect x="132.503" y="14.026" transform="matrix(-0.0855 0.9963 -0.9963 -0.0855 169.3954 -120.1172)" style="fill:#FCD462;" width="14.643" height="7.316"/>
</g>
<path style="fill:#64798A;" d="M248.843,6.967h-61.235c-2.437,0-4.412,1.976-4.412,4.413v63.306h70.06V11.38
	C253.255,8.943,251.28,6.967,248.843,6.967z"/>
<path style="fill:#E1E6E9;" d="M191.619,34.758c0-6.645-3.671-12.032-8.199-12.032c-0.077,0-0.148,0.03-0.224,0.033v23.997
	c0.076,0.003,0.147,0.033,0.224,0.033C187.947,46.789,191.619,41.402,191.619,34.758z"/>
<path style="fill:#3A556A;" d="M270.456,72.865h-104.46c-2.56,0-4.635,2.075-4.635,4.634v31.38h113.728v-31.38
	C275.089,74.94,273.014,72.865,270.456,72.865z"/>
<path style="fill:#E1E6E9;" d="M122.947,409.583h190.559c47.369-31.08,78.675-84.628,78.675-145.516
	c0-96.073-77.883-173.955-173.956-173.955c-96.071,0-173.954,77.882-173.954,173.955C44.27,324.955,75.577,378.503,122.947,409.583z
	"/>
<path style="fill:#FCD462;" d="M214.971,229.546c-62.587,21.941-116.6,21.686-154.733,16.078c-0.704,6.062-1.16,12.197-1.16,18.445
	c0,52.344,25.487,100.881,68.399,130.706h181.503c42.905-29.822,68.392-78.359,68.392-130.706c0-5.237-0.289-10.406-0.786-15.514
	C295.974,198.692,214.971,229.546,214.971,229.546z"/>
<g>
</g>
<g>
</g>
<g>
</g>
<g>
</g>
<g>
</g>
<g>
</g>
<g>
</g>
<g>
</g>
<g>
</g>
<g>
</g>
<g>
</g>
<g>
</g>
<g>
</g>
<g>
</g>
<g>
</g>
</svg>
