<?xml version="1.0" encoding="iso-8859-1"?>
<!-- Generator: Adobe Illustrator 19.0.0, SVG Export Plug-In . SVG Version: 6.00 Build 0)  -->
<svg version="1.1" id="Layer_1" xmlns="http://www.w3.org/2000/svg" xmlns:xlink="http://www.w3.org/1999/xlink" x="0px" y="0px"
	 viewBox="0 0 512 512" style="enable-background:new 0 0 512 512;" xml:space="preserve">
<g>
	<path style="fill:#FFE987;" d="M348.328,67.148c-6.316,0-12.468,1.081-18.236,3.123c0.952-3.713,1.449-7.578,1.449-11.517
		c0-25.455-20.709-46.164-46.164-46.164c-10.149,0-19.807,3.281-27.714,9.236C247.477,8.299,231.331,0,214.033,0
		c-30.083,0-54.557,24.474-54.557,54.557c0,5.368,0.802,10.716,2.352,15.835c-21.318,7.647-35.926,27.836-35.926,51.312
		c0,30.083,24.474,54.557,54.557,54.557c18.776,0,35.74-9.558,45.614-24.584c10.181,12.622,25.737,20.388,42.517,20.388
		c14.344,0,27.847-5.576,37.909-15.321c10.231,12.258,25.408,19.518,41.829,19.518c30.083,0,54.557-24.474,54.557-54.557
		S378.411,67.148,348.328,67.148z"/>
	<path style="fill:#FFE987;" d="M411.279,75.541c-2.825,0-5.638,0.261-8.399,0.772c0.003-0.257,0.005-0.514,0.005-0.772
		c0-30.083-24.474-54.557-54.557-54.557S293.77,45.458,293.77,75.541s24.474,54.557,54.557,54.557c5.882,0,11.65-0.934,17.131-2.746
		c2.792,22.802,22.276,40.516,45.82,40.516c25.455,0,46.164-20.709,46.164-46.164S436.734,75.541,411.279,75.541z"/>
</g>
<path style="fill:#FCD110;" d="M310.557,75.541c0-27.229,20.052-49.861,46.164-53.91c-2.737-0.425-5.54-0.647-8.393-0.647
	c-30.083,0-54.557,24.474-54.557,54.557c0,7.838,1.674,15.29,4.664,22.033h16.781C312.227,90.832,310.557,83.378,310.557,75.541z"/>
<path style="fill:#E2D9D0;" d="M382.246,127.353c-5.241,1.733-10.745,2.652-16.359,2.731c3.952,21.467,22.798,37.785,45.392,37.785
	c2.858,0,5.651-0.275,8.366-0.773C400.013,163.461,384.697,147.369,382.246,127.353z"/>
<path style="fill:#FFE987;" d="M146.885,37.77c-22.633,0-41.515,16.375-45.422,37.898c-23.848,1.773-42.709,21.743-42.709,46.036
	c0,25.455,20.709,46.164,46.164,46.164c22.633,0,41.515-16.375,45.422-37.898c23.848-1.773,42.709-21.743,42.709-46.036
	C193.049,58.479,172.34,37.77,146.885,37.77z"/>
<g>
	<path style="fill:#FCD110;" d="M75.541,125.902c0-24.293,18.861-44.263,42.709-46.036c3.907-21.524,22.789-37.898,45.422-37.898
		c0.865,0,1.723,0.028,2.576,0.076c-5.892-2.734-12.45-4.272-19.363-4.272c-22.633,0-41.515,16.375-45.422,37.898
		c-23.848,1.773-42.709,21.743-42.709,46.036c0,24.59,19.327,44.746,43.588,46.088C86.535,160.457,75.541,144.444,75.541,125.902z"
		/>
	<circle style="fill:#FCD110;" cx="222.426" cy="62.951" r="16.787"/>
	<circle style="fill:#FCD110;" cx="268.59" cy="92.328" r="16.787"/>
	<circle style="fill:#FCD110;" cx="356.721" cy="71.344" r="16.787"/>
	<circle style="fill:#FCD110;" cx="151.082" cy="88.131" r="12.59"/>
</g>
<path style="fill:#F0ECE7;" d="M455.569,120.615c-1.594-1.965-3.989-3.107-6.52-3.107H62.951c-2.546,0-4.954,1.156-6.547,3.141
	c-1.594,1.986-2.199,4.588-1.646,7.073l83.934,377.705c0.853,3.84,4.26,6.573,8.194,6.573h222.426c3.967,0,7.393-2.777,8.213-6.66
	l79.738-377.705C457.785,125.16,457.162,122.58,455.569,120.615z"/>
<g>
	<path style="fill:#E3451E;" d="M455.569,120.615c-1.594-1.965-3.989-3.107-6.52-3.107h-56.467L330.141,512h39.17
		c3.967,0,7.393-2.777,8.213-6.66l79.738-377.705C457.785,125.16,457.162,122.58,455.569,120.615z"/>
	<path style="fill:#E3451E;" d="M56.431,120.615c1.594-1.965,3.989-3.107,6.52-3.107h56.467L181.859,512h-39.17
		c-3.967,0-7.393-2.777-8.213-6.66L54.738,127.635C54.215,125.16,54.838,122.58,56.431,120.615z"/>
</g>
<path style="fill:#C93626;" d="M154.759,505.34L75.022,127.635c-0.522-2.475,0.1-5.055,1.693-7.02
	c1.594-1.965,3.989-3.107,6.52-3.107H62.951c-2.531,0-4.926,1.142-6.52,3.107c-1.594,1.966-2.216,4.545-1.693,7.02l79.738,377.705
	c0.819,3.882,4.245,6.66,8.213,6.66h20.284C159.005,512,155.58,509.223,154.759,505.34z"/>
<rect x="218.229" y="125.902" style="fill:#E3451E;" width="75.541" height="386.098"/>
<path style="fill:#FF9430;" d="M465.836,117.508H46.164c-13.885,0-25.18,11.295-25.18,25.18s11.295,25.18,25.18,25.18h419.672
	c13.885,0,25.18-11.295,25.18-25.18C491.016,128.804,479.721,117.508,465.836,117.508z"/>
<path style="fill:#F26D1F;" d="M58.754,142.689c0-13.885,11.295-25.18,25.18-25.18h-37.77c-13.885,0-25.18,11.295-25.18,25.18
	s11.295,25.18,25.18,25.18h37.77C70.05,167.869,58.754,156.573,58.754,142.689z"/>
<g>
</g>
<g>
</g>
<g>
</g>
<g>
</g>
<g>
</g>
<g>
</g>
<g>
</g>
<g>
</g>
<g>
</g>
<g>
</g>
<g>
</g>
<g>
</g>
<g>
</g>
<g>
</g>
<g>
</g>
</svg>
