<?xml version="1.0" encoding="iso-8859-1"?>
<!-- Generator: Adobe Illustrator 19.0.0, SVG Export Plug-In . SVG Version: 6.00 Build 0)  -->
<svg version="1.1" id="Capa_1" xmlns="http://www.w3.org/2000/svg" xmlns:xlink="http://www.w3.org/1999/xlink" x="0px" y="0px"
	 viewBox="0 0 512 512" style="enable-background:new 0 0 512 512;" xml:space="preserve">
<path style="fill:#F19920;" d="M373.527,477.091H138.473c-5.818,0-10.473-4.655-11.636-10.473L87.273,81.455h337.455
	l-39.564,385.164C384,472.436,379.345,477.091,373.527,477.091z"/>
<path style="fill:#D5E3EF;" d="M69.818,69.818V52.364c0-9.309,8.145-17.455,17.455-17.455h11.636
	c9.309,0,17.455-8.145,17.455-17.455l0,0C116.364,8.145,124.509,0,133.818,0h244.364c9.309,0,17.455,8.145,17.455,17.455l0,0
	c0,9.309,8.145,17.455,17.455,17.455h11.636c9.309,0,17.455,8.145,17.455,17.455v17.455c0,6.982-4.655,11.636-11.636,11.636H81.455
	C74.473,81.455,69.818,76.8,69.818,69.818z"/>
<path style="fill:#99B5CD;" d="M360.727,512H151.273c-6.982,0-11.636-4.655-11.636-11.636v-23.273h232.727v23.273
	C372.364,507.345,367.709,512,360.727,512z"/>
<path style="fill:#BCD1E2;" d="M151.273,512h151.273v-11.636c0-6.982-4.655-11.636-11.636-11.636H139.636v11.636
	C139.636,507.345,144.291,512,151.273,512z"/>
<path style="fill:#E78825;" d="M325.818,81.455h-11.636H87.273l0,0c1.164,12.8,12.8,23.273,25.6,23.273h176.873
	c12.8,0,23.273,10.473,23.273,24.436l-10.473,347.927h70.982c5.818,0,10.473-4.655,11.636-10.473l39.564-385.164H325.818z"/>
<path style="fill:#BCD1E2;" d="M424.727,34.909h-11.636h-75.636c-6.982,0-11.636,4.655-11.636,11.636v11.636
	c0,6.982-4.655,11.636-11.636,11.636H69.818c0,6.982,4.655,11.636,11.636,11.636h244.364h93.091h11.636
	c6.982,0,11.636-4.655,11.636-11.636V52.364C442.182,43.055,434.036,34.909,424.727,34.909z"/>
<path style="fill:#ECF0F9;" d="M238.545,34.909c3.491,0,5.818-2.327,5.818-5.818s-2.327-5.818-5.818-5.818H115.2
	c-2.327,6.982-8.145,11.636-16.291,11.636H238.545z"/>
<path style="fill:#BCD1E2;" d="M407.273,33.745c-6.982-2.327-11.636-9.309-11.636-16.291c0-2.327,0-3.491-1.164-5.818h-91.927
	c-6.982,0-11.636,4.655-11.636,11.636v11.636L407.273,33.745L407.273,33.745z"/>
<path style="fill:#FAA845;" d="M129.164,128H91.927l34.909,338.618c1.164,5.818,5.818,10.473,11.636,10.473h34.909l-20.945-326.982
	C152.436,137.309,141.964,128,129.164,128z"/>
<circle style="fill:#D5E3EF;" cx="256" cy="279.273" r="81.455"/>
<path style="fill:#BCD1E2;" d="M310.691,218.764L307.2,343.273c18.618-15.127,30.255-38.4,30.255-64
	C337.455,254.836,326.982,233.891,310.691,218.764z"/>
<path style="fill:#8B5428;" d="M259.491,233.891c-2.327,2.327-9.309,9.309-9.309,19.782c0,9.309,3.491,13.964,8.145,20.945
	c0,1.164,1.164,1.164,1.164,2.327c5.818,8.145,10.473,17.455,11.636,27.927c0,8.145-3.491,15.127-6.982,19.782
	c15.127-4.655,26.764-23.273,26.764-45.382l0,0c0-12.8-3.491-23.273-9.309-32.582C275.782,238.545,267.636,233.891,259.491,233.891
	C259.491,232.727,259.491,233.891,259.491,233.891z"/>
<path style="fill:#7C4B22;" d="M252.509,324.655c2.327-2.327,9.309-9.309,9.309-19.782c0-8.145-4.655-16.291-9.309-23.273
	c0-1.164-1.164-1.164-1.164-2.327c-4.655-6.982-9.309-13.964-9.309-25.6c0-8.145,3.491-15.127,6.982-19.782
	c-16.291,4.655-27.927,23.273-27.927,45.382c0,12.8,3.491,23.273,9.309,32.582c3.491,4.655,8.145,8.145,11.636,10.473
	C245.527,324.655,249.018,325.818,252.509,324.655C252.509,325.818,252.509,324.655,252.509,324.655z"/>
<g>
</g>
<g>
</g>
<g>
</g>
<g>
</g>
<g>
</g>
<g>
</g>
<g>
</g>
<g>
</g>
<g>
</g>
<g>
</g>
<g>
</g>
<g>
</g>
<g>
</g>
<g>
</g>
<g>
</g>
</svg>
