<?xml version="1.0" encoding="iso-8859-1"?>
<!-- Generator: Adobe Illustrator 19.0.0, SVG Export Plug-In . SVG Version: 6.00 Build 0)  -->
<svg version="1.1" id="Layer_1" xmlns="http://www.w3.org/2000/svg" xmlns:xlink="http://www.w3.org/1999/xlink" x="0px" y="0px"
	 viewBox="0 0 491.52 491.52" style="enable-background:new 0 0 491.52 491.52;" xml:space="preserve">
<polygon style="fill:#F6C358;" points="100.312,44.51 391.208,44.51 391.208,22.255 435.718,0 55.802,0 100.312,22.255 "/>
<path style="fill:#FCD462;" d="M477.773,458.694L456.117,44.51h-64.909H100.312H35.403L13.747,458.694
	c-0.933,17.845,13.285,32.826,31.154,32.826h401.718C464.488,491.52,478.707,476.539,477.773,458.694z M141.005,98.986
	c7.859,0,14.229,6.371,14.229,14.229c0,4.452-2.087,8.378-5.289,10.987v88.671c0,52.835,42.981,95.817,95.816,95.817
	c52.836,0,95.817-42.982,95.817-95.817v-88.667c-3.204-2.609-5.293-6.536-5.293-10.99c0-7.858,6.37-14.229,14.229-14.229
	c7.858,0,14.228,6.371,14.228,14.229c0,4.453-2.088,8.379-5.29,10.988v88.669v4.115c0,65.074-51.002,118.014-113.69,118.014
	c-62.688,0-113.69-52.94-113.69-118.014v-4.115v-88.666c-3.205-2.609-5.295-6.537-5.295-10.992
	C126.777,105.357,133.147,98.986,141.005,98.986z"/>
<polygon style="fill:#DC8744;" points="100.312,22.255 55.802,0 54.001,38.134 "/>
<polygon style="fill:#F2B853;" points="100.312,44.51 100.312,22.255 54.001,38.134 35.403,44.51 "/>
<polygon style="fill:#DC8744;" points="437.519,38.134 435.718,0 391.208,22.255 "/>
<polygon style="fill:#F2B853;" points="391.208,22.255 391.208,44.51 456.117,44.51 437.519,38.134 "/>
<g>
	<path style="fill:#DC8744;" d="M132.072,124.207v-10.992h17.873v10.987c3.202-2.609,5.289-6.534,5.289-10.987
		c0-7.858-6.37-14.229-14.229-14.229c-7.858,0-14.228,6.371-14.228,14.229C126.777,117.67,128.867,121.597,132.072,124.207z"/>
	<path style="fill:#DC8744;" d="M359.452,113.215v10.988c3.203-2.609,5.29-6.535,5.29-10.988c0-7.858-6.37-14.229-14.228-14.229
		c-7.859,0-14.229,6.371-14.229,14.229c0,4.454,2.089,8.381,5.293,10.99v-10.99H359.452z"/>
	<path style="fill:#DC8744;" d="M245.762,326.563c-62.688,0-113.69-51.002-113.69-113.69v4.115
		c0,65.074,51.002,118.014,113.69,118.014c62.688,0,113.69-52.94,113.69-118.014v-4.115
		C359.452,275.561,308.45,326.563,245.762,326.563z"/>
</g>
<path style="fill:#FFFFFF;" d="M132.072,113.215v10.992v88.666c0,62.688,51.002,113.69,113.69,113.69
	c62.688,0,113.69-51.002,113.69-113.69v-88.669v-10.988h-17.873v10.99v88.667c0,52.835-42.981,95.817-95.817,95.817
	c-52.835,0-95.816-42.982-95.816-95.817v-88.671v-10.987H132.072z"/>
<g>
</g>
<g>
</g>
<g>
</g>
<g>
</g>
<g>
</g>
<g>
</g>
<g>
</g>
<g>
</g>
<g>
</g>
<g>
</g>
<g>
</g>
<g>
</g>
<g>
</g>
<g>
</g>
<g>
</g>
</svg>
