<?xml version="1.0" encoding="iso-8859-1"?>
<!-- Generator: Adobe Illustrator 19.0.0, SVG Export Plug-In . SVG Version: 6.00 Build 0)  -->
<svg version="1.1" id="Layer_1" xmlns="http://www.w3.org/2000/svg" xmlns:xlink="http://www.w3.org/1999/xlink" x="0px" y="0px"
	 viewBox="0 0 512 512" style="enable-background:new 0 0 512 512;" xml:space="preserve">
<path style="fill:#FFC473;" d="M269.96,72.947c-0.25,0.721-0.561,1.433-0.932,2.134c-3.907,7.314-13.014,10.089-20.328,6.172
	c-28.714-15.319-62.818-15.008-91.251,0.822L142.18,90.59c-2.314,1.282-4.819,1.894-7.304,1.894c-5.27,0-10.389-2.775-13.135-7.714
	c-0.281-0.501-0.521-1.012-0.731-1.523c-2.925-6.963-0.21-15.158,6.542-18.915l15.269-8.506
	c37.39-20.839,82.264-21.24,120.025-1.082C269.469,58.279,272.364,66.074,269.96,72.947z"/>
<path style="fill:#B8654E;" d="M407.448,32.802v91.822c0,8.306-6.733,15.028-15.028,15.028H260.121
	c-8.296,0-15.028-6.723-15.028-15.028V32.802C245.093,14.718,259.811,0,277.905,0h96.731C392.73,0,407.448,14.718,407.448,32.802z"
	/>
<path style="fill:#994D4D;" d="M407.448,32.802v91.822c0,8.306-6.733,15.028-15.028,15.028h-66.495V0h48.711
	C392.73,0,407.448,14.718,407.448,32.802z"/>
<path style="fill:#FFC473;" d="M501.254,358.091l-0.21,1.202l-7.554,35.637l-14.457,68.178C473.021,491.441,447.643,512,418.679,512
	H233.862c-28.964,0-54.342-20.559-60.353-48.892l-14.457-68.178l-7.684-36.238l-0.08-0.601c-3.757-29.255-3.757-70.121,0-99.376
	c0.571-4.408,1.302-8.776,2.194-13.105c7.714-37.43,27.381-71.444,56.265-96.852c32.14-28.273,73.388-43.872,116.178-43.952h0.341
	c42.92,0,84.298,15.609,116.528,43.952c28.884,25.408,48.551,59.421,56.266,96.852c0.892,4.328,1.623,8.696,2.194,13.105
	C505.011,287.97,505.011,328.837,501.254,358.091z"/>
<path style="fill:#FFA81F;" d="M501.254,358.091l-0.21,1.202l-7.554,35.637l-14.457,68.178C473.021,491.441,447.643,512,418.679,512
	h-92.754V104.807h0.341c42.92,0,84.298,15.609,116.528,43.952c28.884,25.408,48.551,59.421,56.266,96.852
	c0.892,4.328,1.623,8.696,2.194,13.105C505.011,287.97,505.011,328.837,501.254,358.091z"/>
<path style="fill:#775343;" d="M340.953,67.997c0,0.491-0.02,0.992-0.07,1.483c-0.05,0.481-0.12,0.972-0.22,1.453
	c-0.1,0.481-0.22,0.962-0.361,1.433c-0.14,0.461-0.311,0.932-0.501,1.383c-0.18,0.451-0.391,0.902-0.621,1.333
	s-0.491,0.852-0.761,1.262s-0.561,0.812-0.872,1.182c-0.311,0.381-0.641,0.751-0.992,1.102s-0.711,0.681-1.102,0.992
	c-0.371,0.311-0.771,0.601-1.182,0.872s-0.832,0.531-1.262,0.761c-0.431,0.23-0.882,0.441-1.332,0.621
	c-0.451,0.19-0.922,0.361-1.383,0.501c-0.471,0.14-0.952,0.26-1.433,0.361c-0.481,0.1-0.972,0.17-1.453,0.22
	c-0.491,0.05-0.992,0.07-1.483,0.07s-0.982-0.02-1.473-0.07c-0.491-0.05-0.982-0.12-1.463-0.22c-0.481-0.1-0.952-0.22-1.423-0.361
	c-0.471-0.14-0.932-0.311-1.383-0.501c-0.451-0.18-0.902-0.391-1.332-0.621c-0.431-0.23-0.862-0.491-1.262-0.761
	c-0.411-0.271-0.812-0.561-1.192-0.872c-0.381-0.311-0.751-0.641-1.092-0.992c-2.805-2.795-4.408-6.673-4.408-10.63
	c0-0.491,0.03-0.982,0.08-1.473s0.12-0.982,0.22-1.463c0.09-0.481,0.21-0.962,0.361-1.423c0.14-0.471,0.311-0.932,0.491-1.393
	c0.19-0.451,0.401-0.892,0.631-1.322s0.481-0.862,0.751-1.272c0.271-0.401,0.571-0.802,0.882-1.182s0.641-0.751,0.992-1.102
	c0.341-0.341,0.711-0.681,1.092-0.992c0.381-0.301,0.781-0.601,1.192-0.872c0.401-0.271,0.832-0.521,1.262-0.751
	c0.431-0.23,0.882-0.441,1.332-0.631c0.451-0.19,0.912-0.351,1.383-0.491c0.471-0.15,0.942-0.271,1.423-0.361
	c0.481-0.1,0.972-0.17,1.463-0.22c0.491-0.05,0.972-0.07,1.473-0.07c0.491-0.01,0.992,0.02,1.483,0.07
	c0.481,0.05,0.972,0.12,1.453,0.22c0.481,0.09,0.962,0.21,1.433,0.361c0.461,0.14,0.932,0.301,1.383,0.491
	c0.451,0.19,0.902,0.401,1.332,0.631c0.431,0.23,0.852,0.481,1.262,0.751s0.812,0.571,1.182,0.872
	c0.391,0.311,0.751,0.651,1.102,0.992c0.351,0.351,0.681,0.721,0.992,1.102s0.601,0.781,0.872,1.182
	c0.27,0.411,0.531,0.842,0.761,1.272c0.23,0.431,0.441,0.872,0.621,1.322c0.19,0.461,0.361,0.922,0.501,1.393
	c0.14,0.461,0.26,0.942,0.361,1.423c0.1,0.481,0.17,0.972,0.22,1.463S340.953,67.507,340.953,67.997z"/>
<path style="fill:#684B40;" d="M327.408,82.956c-0.491,0.05-0.992,0.07-1.483,0.07V52.979c0.491-0.01,0.992,0.02,1.483,0.07
	c0.481,0.05,0.972,0.12,1.453,0.22c0.481,0.09,0.962,0.21,1.433,0.361c0.461,0.14,0.932,0.301,1.383,0.491
	c0.451,0.19,0.902,0.401,1.332,0.631c0.431,0.23,0.852,0.481,1.262,0.751s0.812,0.571,1.182,0.872
	c0.391,0.311,0.751,0.651,1.102,0.992c0.351,0.351,0.681,0.721,0.992,1.102s0.601,0.781,0.872,1.182
	c0.27,0.411,0.531,0.842,0.761,1.272c0.23,0.431,0.441,0.872,0.621,1.322c0.19,0.461,0.361,0.922,0.501,1.393
	c0.14,0.461,0.26,0.942,0.361,1.423c0.1,0.481,0.17,0.972,0.22,1.463s0.07,0.982,0.07,1.473s-0.02,0.992-0.07,1.483
	c-0.05,0.481-0.12,0.972-0.22,1.453c-0.1,0.481-0.22,0.962-0.361,1.433c-0.14,0.461-0.311,0.932-0.501,1.383
	c-0.18,0.451-0.391,0.902-0.621,1.333s-0.491,0.852-0.761,1.262s-0.561,0.812-0.872,1.182c-0.311,0.381-0.641,0.751-0.992,1.102
	s-0.711,0.681-1.102,0.992c-0.371,0.311-0.771,0.601-1.182,0.872s-0.832,0.531-1.262,0.761c-0.431,0.23-0.882,0.441-1.332,0.621
	c-0.451,0.19-0.922,0.361-1.383,0.501c-0.471,0.14-0.952,0.26-1.433,0.361C328.379,82.835,327.889,82.905,327.408,82.956z"/>
<path style="fill:#81E26F;" d="M161.136,117.611c0,42.239-34.364,76.604-76.604,76.604c-26.359,0-49.653-13.385-63.449-33.713
	c-8.306-12.253-13.155-27.011-13.155-42.89c0-42.239,34.364-76.604,76.604-76.604c24.185,0,45.796,11.271,59.842,28.834
	C154.864,82.956,161.136,99.557,161.136,117.611z"/>
<path style="fill:#3ACC8F;" d="M161.136,117.611c0,42.239-34.364,76.604-76.604,76.604c-26.359,0-49.653-13.385-63.449-33.713
	l123.271-90.67l0.02,0.01C154.864,82.956,161.136,99.557,161.136,117.611z"/>
<path style="fill:#775343;" d="M503.317,335.178c-0.471,8.095-1.162,15.84-2.064,22.913l-0.21,1.202l-7.554,35.637H159.052
	l-7.684-36.238l-0.08-0.601c-0.912-7.073-1.603-14.818-2.064-22.913c-1.473-25.408-0.781-54.282,2.064-76.463
	c0.571-4.408,1.302-8.776,2.194-13.105h345.578c0.892,4.328,1.623,8.696,2.194,13.105
	C504.099,280.897,504.79,309.771,503.317,335.178z"/>
<path style="fill:#684B40;" d="M503.317,335.178c-0.471,8.095-1.162,15.84-2.064,22.913l-0.21,1.202l-7.554,35.637H325.925v-149.32
	h173.135c0.892,4.328,1.623,8.696,2.194,13.105C504.099,280.897,504.79,309.771,503.317,335.178z"/>
<path style="fill:#B8654E;" d="M503.317,335.178H149.224c-1.473-25.408-0.781-54.282,2.064-76.463
	c0.571-4.408,1.302-8.776,2.194-13.105h345.578c0.892,4.328,1.623,8.696,2.194,13.105
	C504.099,280.897,504.79,309.771,503.317,335.178z"/>
<path style="fill:#994D4D;" d="M503.317,335.178H325.925v-89.568h173.135c0.892,4.328,1.623,8.696,2.194,13.105
	C504.099,280.897,504.79,309.771,503.317,335.178z"/>
<g>
</g>
<g>
</g>
<g>
</g>
<g>
</g>
<g>
</g>
<g>
</g>
<g>
</g>
<g>
</g>
<g>
</g>
<g>
</g>
<g>
</g>
<g>
</g>
<g>
</g>
<g>
</g>
<g>
</g>
</svg>
