<?xml version="1.0" encoding="iso-8859-1"?>
<!-- Generator: Adobe Illustrator 19.0.0, SVG Export Plug-In . SVG Version: 6.00 Build 0)  -->
<svg version="1.1" id="Layer_1" xmlns="http://www.w3.org/2000/svg" xmlns:xlink="http://www.w3.org/1999/xlink" x="0px" y="0px"
	 viewBox="0 0 512.001 512.001" style="enable-background:new 0 0 512.001 512.001;" xml:space="preserve">
<path style="fill:#FFC61B;" d="M347.938,363.906H164.064c-7.812,0-14.148-6.335-14.148-14.148v-84.883
	c0-3.339,1.181-6.572,3.335-9.122l44.413-52.639v-83.961c0-7.812,6.335-14.148,14.148-14.148h88.379
	c7.812,0,14.148,6.335,14.148,14.148v21.22c0,7.812-6.335,14.148-14.148,14.148s-14.148-6.335-14.148-14.148V133.3h-60.084v74.984
	c0,3.339-1.181,6.572-3.335,9.122l-44.413,52.639v65.565H333.79v-65.565l-44.413-52.639c-5.039-5.972-4.283-14.896,1.689-19.936
	c5.969-5.041,14.898-4.283,19.936,1.689l47.747,56.591c2.153,2.552,3.335,5.784,3.335,9.122v84.883
	C362.085,357.571,355.75,363.906,347.938,363.906z"/>
<circle style="fill:#FEE187;" cx="112.149" cy="294.852" r="98.001"/>
<path style="fill:#FFC61B;" d="M112.149,406.997C50.311,406.997,0,356.686,0,294.848s50.311-112.149,112.149-112.149
	s112.149,50.311,112.149,112.149S173.987,406.997,112.149,406.997z M112.149,210.996c-46.238,0-83.853,37.616-83.853,83.853
	s37.616,83.853,83.853,83.853s83.853-37.616,83.853-83.853S158.385,210.996,112.149,210.996z"/>
<circle style="fill:#FEE187;" cx="399.857" cy="294.852" r="98.001"/>
<path style="fill:#FFC61B;" d="M399.853,406.997c-61.838,0-112.149-50.311-112.149-112.149s50.311-112.149,112.149-112.149
	s112.149,50.311,112.149,112.149S461.691,406.997,399.853,406.997z M399.853,210.996c-46.238,0-83.854,37.616-83.854,83.853
	s37.616,83.853,83.854,83.853s83.853-37.616,83.853-83.853S446.09,210.996,399.853,210.996z"/>
<g>
</g>
<g>
</g>
<g>
</g>
<g>
</g>
<g>
</g>
<g>
</g>
<g>
</g>
<g>
</g>
<g>
</g>
<g>
</g>
<g>
</g>
<g>
</g>
<g>
</g>
<g>
</g>
<g>
</g>
</svg>
