<?xml version="1.0" encoding="iso-8859-1"?>
<!-- Generator: Adobe Illustrator 19.0.0, SVG Export Plug-In . SVG Version: 6.00 Build 0)  -->
<svg version="1.1" id="Layer_1" xmlns="http://www.w3.org/2000/svg" xmlns:xlink="http://www.w3.org/1999/xlink" x="0px" y="0px"
	 viewBox="0 0 511.999 511.999" style="enable-background:new 0 0 511.999 511.999;" xml:space="preserve">
<rect x="91.568" y="14.749" style="fill:#E6E6E6;" width="328.85" height="98.01"/>
<path style="fill:#4D4D4D;" d="M420.425,120.049c-4.027,0-7.292-3.266-7.292-7.292V22.042H98.868v90.715
	c0,4.027-3.266,7.292-7.292,7.292c-4.027,0-7.292-3.266-7.292-7.292V7.457h343.435v105.3
	C427.717,116.783,424.452,120.049,420.425,120.049z"/>
<g>
	<path style="fill:#247396;" d="M168.426,34.529c-4.018,0-7.275,3.257-7.275,7.275v16.223h-11.885V41.804
		c0-4.018-3.257-7.275-7.275-7.275s-7.275,3.257-7.275,7.275v46.997c0,4.018,3.257,7.275,7.275,7.275s7.275-3.257,7.275-7.275
		V72.579h11.885v16.222c0,4.018,3.257,7.275,7.275,7.275c4.018,0,7.275-3.257,7.275-7.275V41.804
		C175.703,37.786,172.444,34.529,168.426,34.529z"/>
	<path style="fill:#247396;" d="M210.127,34.529c-11.301,0-20.494,9.193-20.494,20.494v20.56c0,11.301,9.193,20.494,20.494,20.494
		s20.494-9.193,20.494-20.494v-20.56C230.621,43.722,221.427,34.529,210.127,34.529z M216.07,75.583
		c0,3.277-2.665,5.942-5.943,5.942c-3.277,0-5.942-2.665-5.942-5.942v-20.56c0-3.277,2.665-5.943,5.942-5.943
		c3.277,0,5.943,2.665,5.943,5.943V75.583z"/>
	<path style="fill:#247396;" d="M272.015,34.529h-26.437c-4.018,0-7.275,3.257-7.275,7.275s3.257,7.275,7.275,7.275h5.942V88.8
		c0,4.018,3.257,7.275,7.275,7.275s7.275-3.257,7.275-7.275V49.08h5.943c4.018,0,7.275-3.257,7.275-7.275
		S276.034,34.529,272.015,34.529z"/>
	<path style="fill:#247396;" d="M325.277,49.08c4.018,0,7.275-3.257,7.275-7.275s-3.257-7.275-7.275-7.275H298.84
		c-4.018,0-7.275,3.257-7.275,7.275v46.997c0,4.018,3.257,7.275,7.275,7.275h26.437c4.018,0,7.275-3.257,7.275-7.275
		c0-4.018-3.257-7.275-7.275-7.275h-19.161V72.78h10.749c4.018,0,7.275-3.257,7.275-7.275s-3.257-7.275-7.275-7.275h-10.749v-9.148
		h19.161V49.08z"/>
	<path style="fill:#247396;" d="M379.711,81.526H360.55V41.804c0-4.018-3.257-7.275-7.275-7.275c-4.018,0-7.275,3.257-7.275,7.275
		v46.997c0,4.018,3.257,7.275,7.275,7.275h26.437c4.018,0,7.275-3.257,7.275-7.275C386.988,84.783,383.729,81.526,379.711,81.526z"
		/>
</g>
<rect x="15.598" y="132.642" style="fill:#FFCA6C;" width="480.8" height="371.9"/>
<rect x="15.598" y="125.35" style="fill:#EAB45E;" width="480.8" height="21.833"/>
<g>
	<path style="fill:#E6E6E6;" d="M147.321,413.38L147.321,413.38c-15.877,0-28.748,12.871-28.748,28.748v62.403h57.494v-62.403
		C176.069,426.251,163.198,413.38,147.321,413.38z"/>
	<path style="fill:#E6E6E6;" d="M364.679,413.38L364.679,413.38c-15.877,0-28.748,12.871-28.748,28.748v62.403h57.494v-62.403
		C393.427,426.251,380.556,413.38,364.679,413.38z"/>
	<path style="fill:#E6E6E6;" d="M256.001,413.38L256.001,413.38c-15.877,0-28.748,12.871-28.748,28.748v62.403h57.494v-62.403
		C284.747,426.251,271.877,413.38,256.001,413.38z"/>
</g>
<g>
	<path style="fill:#EAB45E;" d="M182.753,504.53h-13.369v-62.402c0-12.165-9.898-22.063-22.063-22.063
		c-12.165,0-22.062,9.898-22.062,22.063v62.402H111.89v-62.402c0-19.538,15.895-35.433,35.431-35.433
		c19.536,0,35.433,15.895,35.433,35.433V504.53z"/>
	<path style="fill:#EAB45E;" d="M400.112,504.53h-13.369v-62.402c0-12.165-9.897-22.063-22.062-22.063
		c-12.165,0-22.063,9.898-22.063,22.063v62.402h-13.369v-62.402c0-19.538,15.895-35.433,35.433-35.433
		c19.538,0,35.431,15.895,35.431,35.433V504.53z"/>
	<path style="fill:#EAB45E;" d="M291.432,504.53h-13.369v-62.402c0-12.165-9.897-22.063-22.062-22.063
		c-12.165,0-22.063,9.898-22.063,22.063v62.402h-13.369v-62.402c0-19.538,15.895-35.433,35.431-35.433s35.433,15.895,35.433,35.433
		V504.53z"/>
</g>
<g>
	<path style="fill:#E6E6E6;" d="M76.434,337.422L76.434,337.422c-9.061,0-16.407,7.346-16.407,16.407v34.638h32.815v-34.638
		C92.841,344.768,85.495,337.422,76.434,337.422z"/>
	<path style="fill:#E6E6E6;" d="M220.087,337.422L220.087,337.422c-9.061,0-16.407,7.346-16.407,16.407v34.638h32.815v-34.638
		C236.493,344.768,229.149,337.422,220.087,337.422z"/>
	<path style="fill:#E6E6E6;" d="M148.26,337.422L148.26,337.422c-9.061,0-16.407,7.346-16.407,16.407v34.638h32.815v-34.638
		C164.667,344.768,157.321,337.422,148.26,337.422z"/>
	<path style="fill:#E6E6E6;" d="M291.913,337.422L291.913,337.422c-9.061,0-16.407,7.346-16.407,16.407v34.638h32.815v-34.638
		C308.32,344.768,300.975,337.422,291.913,337.422z"/>
	<path style="fill:#E6E6E6;" d="M435.566,337.422L435.566,337.422c-9.061,0-16.407,7.346-16.407,16.407v34.638h32.815v-34.638
		C451.973,344.768,444.628,337.422,435.566,337.422z"/>
	<path style="fill:#E6E6E6;" d="M363.74,337.422L363.74,337.422c-9.061,0-16.407,7.346-16.407,16.407v34.638h32.815v-34.638
		C380.146,344.768,372.802,337.422,363.74,337.422z"/>
	<path style="fill:#E6E6E6;" d="M76.434,249.007L76.434,249.007c-9.061,0-16.407,7.346-16.407,16.407v34.638h32.815v-34.638
		C92.841,256.351,85.495,249.007,76.434,249.007z"/>
	<path style="fill:#E6E6E6;" d="M220.087,249.007L220.087,249.007c-9.061,0-16.407,7.346-16.407,16.407v34.638h32.815v-34.638
		C236.493,256.351,229.149,249.007,220.087,249.007z"/>
	<path style="fill:#E6E6E6;" d="M148.26,249.007L148.26,249.007c-9.061,0-16.407,7.346-16.407,16.407v34.638h32.815v-34.638
		C164.667,256.351,157.321,249.007,148.26,249.007z"/>
	<path style="fill:#E6E6E6;" d="M291.913,249.007L291.913,249.007c-9.061,0-16.407,7.346-16.407,16.407v34.638h32.815v-34.638
		C308.32,256.351,300.975,249.007,291.913,249.007z"/>
	<path style="fill:#E6E6E6;" d="M435.566,249.007L435.566,249.007c-9.061,0-16.407,7.346-16.407,16.407v34.638h32.815v-34.638
		C451.973,256.351,444.628,249.007,435.566,249.007z"/>
	<path style="fill:#E6E6E6;" d="M363.74,249.007L363.74,249.007c-9.061,0-16.407,7.346-16.407,16.407v34.638h32.815v-34.638
		C380.146,256.351,372.802,249.007,363.74,249.007z"/>
	<path style="fill:#E6E6E6;" d="M76.434,160.59L76.434,160.59c-9.061,0-16.407,7.346-16.407,16.407v34.638h32.815v-34.638
		C92.841,167.936,85.495,160.59,76.434,160.59z"/>
	<path style="fill:#E6E6E6;" d="M220.087,160.59L220.087,160.59c-9.061,0-16.407,7.346-16.407,16.407v34.638h32.815v-34.638
		C236.493,167.936,229.149,160.59,220.087,160.59z"/>
	<path style="fill:#E6E6E6;" d="M148.26,160.59L148.26,160.59c-9.061,0-16.407,7.346-16.407,16.407v34.638h32.815v-34.638
		C164.667,167.936,157.321,160.59,148.26,160.59z"/>
	<path style="fill:#E6E6E6;" d="M291.913,160.59L291.913,160.59c-9.061,0-16.407,7.346-16.407,16.407v34.638h32.815v-34.638
		C308.32,167.936,300.975,160.59,291.913,160.59z"/>
	<path style="fill:#E6E6E6;" d="M435.566,160.59L435.566,160.59c-9.061,0-16.407,7.346-16.407,16.407v34.638h32.815v-34.638
		C451.973,167.936,444.628,160.59,435.566,160.59z"/>
	<path style="fill:#E6E6E6;" d="M363.74,160.59L363.74,160.59c-9.061,0-16.407,7.346-16.407,16.407v34.638h32.815v-34.638
		C380.146,167.936,372.802,160.59,363.74,160.59z"/>
</g>
<g>
	<path style="fill:#EAB45E;" d="M98.31,393.936H54.558v-40.107c0-12.063,9.814-21.877,21.877-21.877s21.876,9.814,21.876,21.877
		v40.107H98.31z M65.497,382.997h21.876v-29.168c0-6.031-4.907-10.939-10.937-10.939c-6.031,0-10.939,4.907-10.939,10.939V382.997z"
		/>
	<path style="fill:#EAB45E;" d="M241.963,393.936H198.21v-40.107c0-12.063,9.813-21.877,21.876-21.877
		c12.063,0,21.877,9.814,21.877,21.877V393.936z M209.149,382.997h21.876v-29.168c0-6.031-4.907-10.939-10.939-10.939
		c-6.031,0-10.937,4.907-10.937,10.939L209.149,382.997L209.149,382.997z"/>
	<path style="fill:#EAB45E;" d="M170.136,393.936h-43.753v-40.107c0-12.063,9.813-21.877,21.876-21.877s21.877,9.814,21.877,21.877
		V393.936z M137.323,382.997h21.876v-29.168c0-6.031-4.907-10.939-10.939-10.939c-6.031,0-10.937,4.907-10.937,10.939V382.997z"/>
	<path style="fill:#EAB45E;" d="M313.789,393.936h-43.752v-40.107c0-12.063,9.814-21.877,21.877-21.877s21.876,9.814,21.876,21.877
		v40.107H313.789z M280.976,382.997h21.876v-29.168c0-6.031-4.907-10.939-10.937-10.939c-6.031,0-10.939,4.907-10.939,10.939
		V382.997z"/>
	<path style="fill:#EAB45E;" d="M457.442,393.936h-43.753v-40.107c0-12.063,9.813-21.877,21.876-21.877s21.877,9.814,21.877,21.877
		V393.936z M424.629,382.997h21.876v-29.168c0-6.031-4.907-10.939-10.939-10.939c-6.031,0-10.937,4.907-10.937,10.939V382.997z"/>
	<path style="fill:#EAB45E;" d="M385.616,393.936h-43.753v-40.107c0-12.063,9.814-21.877,21.877-21.877
		c12.063,0,21.876,9.814,21.876,21.877V393.936z M352.802,382.997h21.876v-29.168c0-6.031-4.907-10.939-10.937-10.939
		s-10.939,4.907-10.939,10.939V382.997z"/>
	<path style="fill:#EAB45E;" d="M98.31,305.519H54.558v-40.107c0-12.063,9.814-21.876,21.877-21.876s21.876,9.813,21.876,21.876
		v40.107H98.31z M65.497,294.58h21.876v-29.168c0-6.031-4.907-10.937-10.937-10.937c-6.031,0-10.939,4.907-10.939,10.937V294.58z"/>
	<path style="fill:#EAB45E;" d="M241.963,305.519H198.21v-40.107c0-12.063,9.813-21.876,21.876-21.876
		c12.063,0,21.877,9.813,21.877,21.876V305.519z M209.149,294.58h21.876v-29.168c0-6.031-4.907-10.937-10.939-10.937
		c-6.031,0-10.937,4.907-10.937,10.937L209.149,294.58L209.149,294.58z"/>
	<path style="fill:#EAB45E;" d="M170.136,305.519h-43.753v-40.107c0-12.063,9.813-21.876,21.876-21.876s21.877,9.813,21.877,21.876
		V305.519z M137.323,294.58h21.876v-29.168c0-6.031-4.907-10.937-10.939-10.937c-6.031,0-10.937,4.907-10.937,10.937V294.58z"/>
	<path style="fill:#EAB45E;" d="M313.789,305.519h-43.752v-40.107c0-12.063,9.814-21.876,21.877-21.876s21.876,9.813,21.876,21.876
		v40.107H313.789z M280.976,294.58h21.876v-29.168c0-6.031-4.907-10.937-10.937-10.937c-6.031,0-10.939,4.907-10.939,10.937V294.58z
		"/>
	<path style="fill:#EAB45E;" d="M457.442,305.519h-43.753v-40.107c0-12.063,9.813-21.876,21.876-21.876s21.877,9.813,21.877,21.876
		V305.519z M424.629,294.58h21.876v-29.168c0-6.031-4.907-10.937-10.939-10.937c-6.031,0-10.937,4.907-10.937,10.937V294.58z"/>
	<path style="fill:#EAB45E;" d="M385.616,305.519h-43.753v-40.107c0-12.063,9.814-21.876,21.877-21.876
		c12.063,0,21.876,9.813,21.876,21.876V305.519z M352.802,294.58h21.876v-29.168c0-6.031-4.907-10.937-10.937-10.937
		s-10.939,4.907-10.939,10.937V294.58z"/>
	<path style="fill:#EAB45E;" d="M98.31,217.104H54.558v-40.107c0-12.063,9.814-21.877,21.877-21.877s21.876,9.814,21.876,21.877
		v40.107H98.31z M65.497,206.165h21.876v-29.168c0-6.031-4.907-10.939-10.937-10.939c-6.031,0-10.939,4.907-10.939,10.939V206.165z"
		/>
	<path style="fill:#EAB45E;" d="M241.963,217.104H198.21v-40.107c0-12.063,9.813-21.877,21.876-21.877
		c12.063,0,21.877,9.814,21.877,21.877V217.104z M209.149,206.165h21.876v-29.168c0-6.031-4.907-10.939-10.939-10.939
		c-6.031,0-10.937,4.907-10.937,10.939L209.149,206.165L209.149,206.165z"/>
	<path style="fill:#EAB45E;" d="M170.136,217.104h-43.753v-40.107c0-12.063,9.813-21.877,21.876-21.877s21.877,9.814,21.877,21.877
		V217.104z M137.323,206.165h21.876v-29.168c0-6.031-4.907-10.939-10.939-10.939c-6.031,0-10.937,4.907-10.937,10.939V206.165z"/>
	<path style="fill:#EAB45E;" d="M313.789,217.104h-43.752v-40.107c0-12.063,9.814-21.877,21.877-21.877s21.876,9.814,21.876,21.877
		v40.107H313.789z M280.976,206.165h21.876v-29.168c0-6.031-4.907-10.939-10.937-10.939c-6.031,0-10.939,4.907-10.939,10.939
		V206.165z"/>
	<path style="fill:#EAB45E;" d="M457.442,217.104h-43.753v-40.107c0-12.063,9.813-21.877,21.876-21.877s21.877,9.814,21.877,21.877
		V217.104z M424.629,206.165h21.876v-29.168c0-6.031-4.907-10.939-10.939-10.939c-6.031,0-10.937,4.907-10.937,10.939V206.165z"/>
	<path style="fill:#EAB45E;" d="M385.616,217.104h-43.753v-40.107c0-12.063,9.814-21.877,21.877-21.877
		c12.063,0,21.876,9.814,21.876,21.877V217.104z M352.802,206.165h21.876v-29.168c0-6.031-4.907-10.939-10.937-10.939
		s-10.939,4.907-10.939,10.939V206.165z"/>
</g>
<rect y="106.681" style="fill:#4D4D4D;" width="511.999" height="25.957"/>
<g>
</g>
<g>
</g>
<g>
</g>
<g>
</g>
<g>
</g>
<g>
</g>
<g>
</g>
<g>
</g>
<g>
</g>
<g>
</g>
<g>
</g>
<g>
</g>
<g>
</g>
<g>
</g>
<g>
</g>
</svg>
