<?xml version="1.0" encoding="iso-8859-1"?>
<!-- Generator: Adobe Illustrator 19.0.0, SVG Export Plug-In . SVG Version: 6.00 Build 0)  -->
<svg version="1.1" id="Layer_1" xmlns="http://www.w3.org/2000/svg" xmlns:xlink="http://www.w3.org/1999/xlink" x="0px" y="0px"
	 viewBox="0 0 512 512" style="enable-background:new 0 0 512 512;" xml:space="preserve">
<path style="fill:#A7A9AC;" d="M114.236,495.468V60.024c0-8.269,6.058-15.523,14.276-16.431c9.717-1.072,17.94,6.507,17.94,16.007
	v436.29c0,9.5-8.224,17.079-17.94,16.007C120.294,510.993,114.236,503.737,114.236,495.468z"/>
<path style="fill:#FFDB2D;" d="M409.54,298.956H114.237V83.103h294.854c15.116,0,21.839,17.499,11.84,27.498l-80.428,80.428
	l80.11,80.11C431.3,281.828,423.68,298.956,409.54,298.956z"/>
<path style="fill:#FF4F19;" d="M129.817,86.986c-23.982,0-43.493-19.511-43.493-43.493S105.835,0,129.817,0
	s43.493,19.511,43.493,43.493S153.799,86.986,129.817,86.986z"/>
<path style="fill:#FF9900;" d="M340.511,191.03l80.428-80.428c9.999-9.999,3.276-27.498-11.84-27.498H255.99v215.853h153.557
	c14.14,0,21.761-17.128,11.073-27.816L340.511,191.03z"/>
<g>
</g>
<g>
</g>
<g>
</g>
<g>
</g>
<g>
</g>
<g>
</g>
<g>
</g>
<g>
</g>
<g>
</g>
<g>
</g>
<g>
</g>
<g>
</g>
<g>
</g>
<g>
</g>
<g>
</g>
</svg>
