<?xml version="1.0" encoding="iso-8859-1"?>
<!-- Generator: Adobe Illustrator 19.0.0, SVG Export Plug-In . SVG Version: 6.00 Build 0)  -->
<svg version="1.1" id="Layer_1" xmlns="http://www.w3.org/2000/svg" xmlns:xlink="http://www.w3.org/1999/xlink" x="0px" y="0px"
	 viewBox="0 0 512 512" style="enable-background:new 0 0 512 512;" xml:space="preserve">
<path style="fill:#FEE187;" d="M76.314,318.439c-34.429,0-62.439-28.01-62.439-62.439s28.01-62.439,62.439-62.439
	s62.439,28.01,62.439,62.439S110.743,318.439,76.314,318.439z"/>
<path style="fill:#FFC61B;" d="M76.314,332.314C34.235,332.314,0,298.08,0,256s34.235-76.314,76.314-76.314
	S152.629,213.92,152.629,256S118.394,332.314,76.314,332.314z M76.314,207.436c-26.778,0-48.564,21.786-48.564,48.564
	s21.786,48.564,48.564,48.564s48.564-21.786,48.564-48.564S103.092,207.436,76.314,207.436z"/>
<path style="fill:#FEE187;" d="M256,318.439c-34.429,0-62.439-28.01-62.439-62.439s28.01-62.439,62.439-62.439
	s62.439,28.01,62.439,62.439S290.429,318.439,256,318.439z"/>
<g>
	<path style="fill:#FFC61B;" d="M256,332.314c-42.08,0-76.314-34.235-76.314-76.314S213.92,179.686,256,179.686
		S332.314,213.92,332.314,256S298.08,332.314,256,332.314z M256,207.436c-26.778,0-48.564,21.786-48.564,48.564
		s21.786,48.564,48.564,48.564s48.564-21.786,48.564-48.564S282.778,207.436,256,207.436z"/>
	<path style="fill:#FFC61B;" d="M435.686,332.314c-42.08,0-76.314-34.235-76.314-76.314s34.235-76.314,76.314-76.314
		S512,213.92,512,256c0,7.663-6.213,13.875-13.875,13.875c-7.662,0-13.875-6.212-13.875-13.875
		c0-26.778-21.786-48.564-48.564-48.564c-26.778,0-48.564,21.786-48.564,48.564s21.786,48.564,48.564,48.564
		c8.843,0,17.5-2.41,25.039-6.968c6.559-3.967,15.087-1.865,19.052,4.691c3.966,6.557,1.866,15.088-4.693,19.054
		C463.216,328.519,449.59,332.314,435.686,332.314z"/>
</g>
<g>
</g>
<g>
</g>
<g>
</g>
<g>
</g>
<g>
</g>
<g>
</g>
<g>
</g>
<g>
</g>
<g>
</g>
<g>
</g>
<g>
</g>
<g>
</g>
<g>
</g>
<g>
</g>
<g>
</g>
</svg>
