<?xml version="1.0" encoding="iso-8859-1"?>
<!-- Generator: Adobe Illustrator 19.0.0, SVG Export Plug-In . SVG Version: 6.00 Build 0)  -->
<svg version="1.1" id="Layer_1" xmlns="http://www.w3.org/2000/svg" xmlns:xlink="http://www.w3.org/1999/xlink" x="0px" y="0px"
	 viewBox="0 0 512 512" style="enable-background:new 0 0 512 512;" xml:space="preserve">
<path style="fill:#D7EBFF;" d="M439.652,183.652c0,6.344-0.334,12.689-1.003,18.922c-11.241-0.111-22.371-2.226-32.946-6.567
	c-2.337-0.779-4.674-1.892-6.9-3.005c-16.252-8.125-35.618-8.125-51.87,0c-1.557,0.779-3.115,1.558-4.674,2.226
	c-23.152,10.017-50.087,10.574-78.136-2.671c-2.671-1.224-5.343-2.337-8.125-3.005c-14.582-4.563-29.94-2.894-42.631,3.45
	c-12.798,6.456-26.822,9.572-40.846,9.572c-14.024,0-28.049-3.117-40.848-9.572c-8.126-4.007-16.918-6.122-25.824-6.122
	s-17.92,2.003-26.046,6.122c-2.337,1.113-4.674,2.226-7.011,3.117c-0.334-4.118-0.445-8.237-0.445-12.466
	c0-7.68,0.445-15.917,1.447-24.376c4.899-46.414,23.151-102.845,48.974-150.595C125.663,3.339,131.339,0,137.461,0h237.078
	c6.122,0,11.798,3.339,14.692,8.682c27.826,51.2,46.635,112.529,49.864,160.612C439.43,174.303,439.652,178.977,439.652,183.652z"/>
<path style="fill:#BDDEFF;" d="M439.652,183.652c0,6.344-0.334,12.689-1.003,18.922c-11.241-0.111-22.371-2.226-32.946-6.567
	c-2.337-0.779-4.674-1.892-6.9-3.005c-16.252-8.125-35.618-8.125-51.87,0c-1.557,0.779-3.115,1.558-4.674,2.226
	c-23.152,10.017-50.087,10.574-78.136-2.671c-2.671-1.224-5.343-2.337-8.125-3.005V0h118.539c6.123,0,11.799,3.339,14.693,8.682
	c27.826,51.2,46.635,112.529,49.864,160.612C439.43,174.303,439.652,178.977,439.652,183.652z"/>
<path style="fill:#D7EBFF;" d="M256,512c-9.217,0-16.696-7.473-16.696-16.696V350.609c0-9.223,7.479-16.696,16.696-16.696
	c9.217,0,16.696,7.473,16.696,16.696v144.696C272.696,504.527,265.217,512,256,512z"/>
<path style="fill:#BDDEFF;" d="M272.696,495.304V350.609c0-9.223-7.479-16.696-16.696-16.696V512
	C265.217,512,272.696,504.527,272.696,495.304z"/>
<path style="fill:#FFC033;" d="M439.652,183.652c0,6.344-0.334,12.689-1.003,18.922c-9.459,92.383-87.707,164.73-182.649,164.73
	c-97.057,0-176.863-75.687-183.207-171.186c-0.334-4.118-0.445-8.237-0.445-12.466c0-7.68,0.445-15.917,1.447-24.376
	c11.019-4.118,22.705-6.01,34.393-5.677c13.244,0.334,26.38,3.45,38.4,9.572c27.159,13.579,47.75,1.447,58.88-3.005
	c16.696-6.678,34.172-8.125,50.532-5.12c4.674,0.89,9.239,2.115,13.69,3.673c11.13,3.896,33.614,18.81,62.332,4.452
	c22.705-11.353,49.195-12.577,72.681-3.896c3.005,1.113,6.121,2.449,9.015,3.896c7.904,3.896,16.696,6.01,25.377,6.122
	C439.43,174.303,439.652,178.977,439.652,183.652z"/>
<path style="fill:#F9A926;" d="M439.652,183.652c0,6.344-0.334,12.689-1.003,18.922c-9.459,92.383-87.707,164.73-182.649,164.73
	V155.047c4.674,0.89,9.239,2.115,13.69,3.673c11.13,3.896,33.614,18.81,62.332,4.452c22.705-11.353,49.195-12.577,72.681-3.896
	c3.005,1.113,6.121,2.449,9.015,3.896c7.904,3.896,16.696,6.01,25.377,6.122C439.43,174.303,439.652,178.977,439.652,183.652z"/>
<circle style="fill:#BDDEFF;" cx="294.957" cy="272.696" r="16.696"/>
<g>
	<circle style="fill:#D7EBFF;" cx="217.043" cy="239.304" r="16.696"/>
	<path style="fill:#D7EBFF;" d="M339.478,512H172.522c-9.217,0-16.696-7.473-16.696-16.696s7.479-16.696,16.696-16.696h166.957
		c9.217,0,16.696,7.473,16.696,16.696S348.695,512,339.478,512z"/>
</g>
<path style="fill:#BDDEFF;" d="M339.478,478.609H256V512h83.478c9.217,0,16.696-7.473,16.696-16.696
	S348.695,478.609,339.478,478.609z"/>
<g>
</g>
<g>
</g>
<g>
</g>
<g>
</g>
<g>
</g>
<g>
</g>
<g>
</g>
<g>
</g>
<g>
</g>
<g>
</g>
<g>
</g>
<g>
</g>
<g>
</g>
<g>
</g>
<g>
</g>
</svg>
